<?xml version="1.0" encoding="utf-8"?>
<svg version="1.1" id="Layer_1" xmlns="http://www.w3.org/2000/svg" xmlns:xlink="http://www.w3.org/1999/xlink" x="0px" y="0px"
	 viewBox="0 0 800 800" style="enable-background:new 0 0 800 800;" xml:space="preserve">
<style type="text/css">
	.st0{fill:#db2777;}
</style>
<g>
	<path class="st0" d="M783.5,449.1c-8.8-30.3-18.6-60.1-35.8-87.1c-15.6-24.5-34.2-45.3-62.1-55.3c-25.1-9.1-59-9.1-77.9-9.4
		c-15.7-0.3-16.7-0.3-28.9-0.4c14.9-13.8,29-25.8,41.9-38.9c32.3-32.8,46.7-72.1,39.4-118c-6.5-40.6-24.9-76.5-46.1-111.1
		c-5.1-8.3-13.4-11.6-22.6-11.7c-29.2-0.5-58.6-2.7-87.6,2.8c-59,11.1-99.2,43.3-115.8,102.6c-5.3,19-7.5,38.6-11.8,60.3
		c-6.3-12.6-11.9-22.6-16.3-33.1c-13.1-30.9-32.5-56.4-62.5-72.1c-48.4-25.4-98.8-18.7-149.4-7.8c-18.9,4.1-31.6,13.2-37.9,32.1
		C98.6,135.8,90,169.8,90.5,206.5c0.6,46.1,22.4,78.9,56.6,106.5c11.8,9.5,27.5,12.9,39.4,26.1c-13.5,2.5-25.1,5.5-36.9,6.8
		c-40.5,4.7-75.9,19.4-100.1,53.4C21.6,438.4,14,484.3,10.1,531c-1.1,13.6,4.2,23.2,14.4,31.2c16.8,13.1,33.1,26.6,51.8,37.4
		c65.1,37.5,123.6,33.4,181.4-14.7c8.5-7.1,13.3-10.9,24.4-22.7c5.9,4.8,3.7,9.6,2.2,13.6c-4.5,11.9-6.6,24.2-8,36.7
		c-5.1,45.5,3,86.6,37.9,120c27.4,26.3,60.4,42.3,94.4,57.4c14.1,6.3,25.7,4.2,37.9-3.6c24-15.2,45.5-32.9,65.5-53.3
		c34.6-35.3,45.5-76.5,37.5-123.9c-3.2-18.8-9.2-36.9-18.1-53.9c-2.2-4.3-6.9-9.8-2.3-13.8c3.8-3.3,8.2,2.5,12.2,4.4
		c11.4,5.3,22.3,11.6,33.8,16.6c34.3,14.9,68.8,16.4,104.1,2c39.6-16.1,69.6-43.2,95.2-76.7C783.6,475.6,787.7,463.6,783.5,449.1z
		 M394.3,186.5c13-34.7,30.6-64.6,66.3-77.4c32.8-11.8,65-6.1,93.4,15.5c28.8,21.9,45.4,49.5,42.2,87.2
		c-1.5,17.3-9.9,30.7-17.4,45.7c-12.2,24.7-33.2,37.9-53,53.5c-5.6,4.4-12.7,11.1-19.7,9.1c-1.6-0.5,1-6-2.2-8.5
		c-10.2-8-19.2-4.2-26.8,7.9c-4.6,7.4-13.1,10.9-23.5,14.6c7.1-19,22.8-28.4,33.4-41.7c8.5-10.6,17.7-21,33-23.8
		c10.6-2,9.3-12.4,8.7-20.8c-0.5-8.2-5.1-12.6-13.4-13.2c-8.8-0.6-17,2.6-18.4,11.3c-2.9,17.6-14.4,28.8-26.5,39.5
		c-8.4,7.5-15.4,16-22.6,24.5c-4.9,5.9-10.5,11.2-15.7,16.8c-1-1-2-2-3-3c10.9-11.8,14.8-28.5,28.3-38.6c5.1-3.8,4.8-9.7,2.2-15.3
		c-2.2-4.7-5.7-7.3-11.1-6.4c-6.1,1-10.5,4.2-11.3,10.6c-2,15.9-7.7,30-19.2,41.5c-3-2.6-2.3-5-1.6-7c6.5-19.5,9-39.8,12.7-59.8
		c2-10.7,5.9-20.3,14.2-28c6.9-6.3,8.8-14.1,2.7-22.4c-5.3-7.1-12.2-10.2-20.7-7c-9.4,3.5-12.5,11.7-10.5,20.4
		c5.8,25-4.2,47.5-9.5,70.8c-1,4.6-1.6,10.2-7,12.9c-4.5-2.2-4-6.7-3.4-9.8C400.9,252.4,381.6,220.3,394.3,186.5z M162.1,245.8
		c-4.5-22.7,3.8-45,20.4-62.5c15.6-16.4,31-32.9,53.8-40.7c46.1-15.6,85.4,4.6,112.1,39.7c23.3,30.5,26.5,66.5,29.8,102.5
		c0.6,5.9,4,12.4-0.6,19.3c-7.5-5.4-5.9-13.9-8.3-20.2c-6.8-17.7-11.5-36.1-17-54.3c-1.3-4.3,0.9-7.5,2.1-11.9
		c2.7-9.8-0.2-16.4-6.4-21.5c-7.3-6-16-4.5-22.9,1.8c-7,6.3-6.1,21.6,2,23.9c21,6,29,56,35.1,91.7c-10.9-6.3-18.9-18.5-23.4-33.9
		c-1.7-6-4-11.8-10.6-13.5c-5.3-1.4-8.5,2.9-11.6,6.3c-6.1,6.4-3.4,12.1,2.5,16.5c6.1,4.6,11.1,9.8,14.8,16.4
		c1.4,2.5,2.7,5.3-0.2,7.5c-2.2,1.6-4.4,0.2-6.2-1.4c-14.4-13.1-28.8-26.1-43.2-39.2c-4-3.6-5.5-8.4-6.3-13.6
		c-1.8-13-11.1-16.2-22.3-16c-9.6,0.3-14.3,6.2-14.5,15.3c-0.3,11.4,5.7,18.8,17,20c8.6,0.9,14.5,5.1,20.3,10.8
		c13.7,13.2,27.7,26.1,41.5,39.2c2.6,2.4,6.2,4.4,5.7,10.7c-12.7-7-26.2-10.3-32.6-24c-2.2-4.6-7.5-5.1-12.3-3.4
		c-5.2,1.9-8.5,5.7-9.5,11.1c-1.1,6.1,2.6,9.7,7.5,12c10.8,5.3,23.4,6.3,33.4,13.5c2.5,1.8,6.1,2.3,7.5,8.3
		c-12.5-1.2-24.9-4.2-35.5-7.5c-19.5-6-45-17-63-22C180.1,315.7,169.1,281,162.1,245.8z M300.5,517c-6.5,9-8.5,10-12.5,15
		s-23.2,17.5-32.8,21.2c-22.6,8.8-45.7,15-70.7,10.8c-9.3-1.6-16.5-5.7-23.8-10.4c-46.4-29.8-68-89.4-41.8-138.3
		c15.8-29.5,42.7-46.2,75.2-52.1c33.3-6.1,65-2.6,98.8,5.8c8,2,8,3,12.8,5.6c-10,6.6-19.8,4.6-30,0.7c-7.5-2.8-15.4-1.4-18.6,7.1
		c-2.7,7.3,2.1,12.2,8,16c4.9,3.1,8.9,0.2,12.8-2.2c12.1-7.2,24.4-6.8,38.9-1.4c-12.4,9.3-26.4,9.9-38.8,13.7
		c-20,6.1-39.8,15.7-62.2,10.2c-6.9-1.7-12.6,2.5-14.8,9.8c-2.5,8.5-0.6,15.6,6.6,21c6.6,4.9,14.8,7.5,20.4,1.3
		c20.1-22.7,49.1-23.8,74.9-32.6c5.6-1.9,11.3-3.3,17.4-4c-9,10.2-19.9,16.8-32.6,21.1c-5.7,1.9-13.9,1.7-13.1,11.3
		c0.5,6,3,10.8,9.2,12.6c8,2.3,11.5-2.7,15.1-8.8c7.4-12.2,20.1-17.1,35.5-24.1c-10.8,18.7-24.3,31-36.8,43.9
		c-11.1,11.5-21.2,24.4-38.3,28.6c-7.1,1.8-10.4,9.2-9,17c1.5,8.5,3.2,9.8,11.5,12.3c3.3,1,9,1,12,0s8-4.6,8-10
		c0-6,1.4-7.1,5.1-12.1c5-6.6,9.7-13.9,16.2-18.8c14-10.5,24.9-23.8,35-38c-1.2,11.8-13.6,29.6-13.6,29.6s-6.8,10.8-9.5,16.6
		C311.5,503.3,306.9,508,300.5,517z M506.5,604.8c-8.8,35.9-38.8,70.5-79.4,73.2c-14.8,1-29.2,3.1-44.3,0.9
		c-58-8.3-89.3-86.9-72.3-130.2c4.2-10.7,7-22,12.3-32.4c2.4-4.7,3.5-11.6,8.1-14.3c0.8-0.4,4.5,0.6,6,0c6-2.4,6-6.7,7.4-12.9
		c3.4-15,9.6-27.1,21.5-42.5c1,8.5-0.9,15.8-3.3,22.3c-6.5,18-8.5,37-12.7,55.4c-2.4,10.7-10.5,17.3-15.2,26.2
		c-4.2,7.9-6.1,16.3,3,22.2c9,5.9,17.7,4.3,25-3.7c3-3.3,5.2-7.6,3.3-11.5c-8-16.4-0.5-32,2.4-47.6c3-16,8.1-31.7,14.3-47.2
		c5,12.2,5.2,24.2,1.2,36.2c-2.2,6.5-3.9,12.8,3.2,17.3c4.2,2.7,9.1,3,13.1-0.2c5.8-4.7,6.5-10.9,3.5-17.6c-7-15.5-1.8-32-3.3-48.2
		c8.5,13.1,10.3,28.6,14.8,42.9c6.4,20.1,15.8,39.9,11,62.3c-1.8,8.5,3.6,14.5,11.5,16.7c7,2,14.4,0.4,18.7-6
		c4.8-7.2,4.5-15.6-1.5-22c-24-25.8-20.5-61.2-33-91.1c8.2,10.2,23.1,20,19.3,33.4c-2.8,10,14.4,17,21.8,9.9c3.1-3,4.8-15-7-17.4
		c-5-1-10-24.3-9-24c3.1,1.1,32.8,41.1,34.7,44.5C500.4,532,516.1,565.5,506.5,604.8z M668.5,463c-18.6,42.5-53.8,64.9-100.3,60.9
		C556.9,523,544,518,532,508c-0.6-0.5,0,2,5,0c1.8-0.7,3.6-2.8,4-5c1.5-8.1-10.1-12.4-16.8-13.6c-9.9-1.7-16.8-7.2-23.5-13.8
		c-15.7-15.6-28.7-32.6-43-49c8.8,6.9,36,11,34.3,19.4c-1,5,8,10,14,5c1.7-1.4,3.9-5.1,4.8-10.2c1.2-6.8-5.6-12.9-11.1-10.6
		c-9.6,3.8-27.6-11-39.5-20.6c27.8,4.7,55.8,8.6,82.2,18.3c8.7,3.2,8.4,6.7,11.7,9.2c7.8,5.8,14.3,6,22.5,0.7
		c6.7-4.4,9.4-12.3,6.5-19.7c-3.8-9.6-12.9-11.7-22.2-9.9c-29.3,5.6-55.4-8.2-83-12.7c-3-0.5-5.3-2.4-4.7-5.7
		c0.5-2.5,2.7-3.8,5.2-3.9c3.2-0.2,6.5-0.2,9.7,0.3c6.4,1.1,12.7,2.7,19.1,3.9c6.7,1.2,13.2,0.8,17.1-5.9c2.3-3.9,2.7-8.6-0.9-11.6
		c-5.5-4.6-12.3-6.7-19.4-3.9c-15.6,6.1-23.9,7-41.5,3.2c6.4-5.8,13.8-6.5,20.4-8.8c17.1-5.9,35.4-7.9,51.9-15.7
		c5.6-2.6,11.8-0.8,17.8,0.2c13,2.3,25,0.3,27.6-12.3c1-5-2.1-7.7-1-9c3.3-3.8,12.3-2.1,18-0.8C657.8,338.2,696.8,398.2,668.5,463z"
		/>
</g>
</svg>